P3
16 16
255
157 108 73 157 108 73 157 108 73 157 107 73 44 44 44 44 44 44 44 44 44 
157 108 73 157 108 73 44 44 44 44 44 44 44 44 44 157 107 73 157 108 73 
157 108 73 157 108 73 157 108 73 157 108 73 157 108 73 44 44 44 51 151 81 
51 151 81 0 120 64 44 44 44 44 44 44 0 120 64 51 151 81 51 151 81 44 44 44 
157 108 73 157 108 73 157 108 73 157 108 73 157 108 73 157 108 73 44 44 44 
51 151 81 0 120 64 0 120 64 44 44 44 44 44 44 0 120 64 0 120 64 51 151 81 
44 44 44 157 108 73 157 108 73 157 108 73 157 107 73 44 44 44 44 44 44 
44 44 44 44 44 44 0 120 64 0 120 64 44 44 44 44 44 44 0 120 64 0 120 64 
44 44 44 44 44 44 44 44 44 44 44 44 157 107 73 44 44 44 51 151 81 51 151 81 
0 120 64 0 120 64 44 44 44 44 44 44 0 120 64 0 120 64 44 44 44 44 44 44 
0 120 64 0 120 64 51 151 81 51 151 81 44 44 44 44 44 44 51 151 81 0 120 64 
0 120 64 0 120 64 0 120 64 44 44 44 51 151 81 51 151 81 44 44 44 0 120 64 
0 120 64 0 120 64 0 120 64 51 151 81 44 44 44 44 44 44 44 44 44 0 120 64 
0 120 64 0 120 64 0 120 64 44 44 44 51 151 81 51 151 81 44 44 44 0 120 64 
0 120 64 0 120 64 0 120 64 44 44 44 44 44 44 157 107 73 44 44 44 44 44 44 
44 44 44 44 44 44 44 44 44 44 44 44 0 120 64 0 120 64 44 44 44 44 44 44 
44 44 44 44 44 44 44 44 44 44 44 44 157 107 73 44 44 44 44 44 44 0 120 64 
0 120 64 0 120 64 0 120 64 44 44 44 44 44 44 44 44 44 44 44 44 0 120 64 
0 120 64 0 120 64 0 120 64 44 44 44 44 44 44 44 44 44 51 151 81 0 120 64 
0 120 64 0 120 64 44 44 44 44 44 44 0 120 64 0 120 64 44 44 44 44 44 44 
0 120 64 0 120 64 0 120 64 51 151 81 44 44 44 44 44 44 51 151 81 51 151 81 
0 120 64 44 44 44 44 44 44 0 120 64 0 120 64 0 120 64 0 120 64 44 44 44 
44 44 44 0 120 64 51 151 81 51 151 81 44 44 44 44 44 44 44 44 44 44 44 44 
44 44 44 44 44 44 44 44 44 0 120 64 0 120 64 0 120 64 0 120 64 44 44 44 
44 44 44 44 44 44 44 44 44 44 44 44 44 44 44 157 108 73 44 44 44 44 44 44 
0 120 64 0 120 64 44 44 44 51 151 81 0 120 64 0 120 64 51 151 81 44 44 44 
0 120 64 0 120 64 44 44 44 44 44 44 157 108 73 157 108 73 157 108 73 
44 44 44 51 151 81 0 120 64 44 44 44 44 44 44 51 151 81 51 151 81 44 44 44 
44 44 44 0 120 64 51 151 81 44 44 44 157 108 73 157 108 73 157 108 73 
157 108 73 44 44 44 44 44 44 44 44 44 44 44 44 44 44 44 44 44 44 44 44 44 
44 44 44 44 44 44 44 44 44 44 44 44 44 44 44 157 108 73 157 108 73 157 108 73 
157 108 73 157 108 73 157 108 73 157 108 73 157 108 73 157 108 73 44 44 44 
44 44 44 157 108 73 157 108 73 157 108 73 157 108 73 157 108 73 157 108 73 
157 108 73 
