P3
16 16
255
157 108 73 157 108 73 157 108 73 157 108 73 157 108 73 157 108 73 157 108 73 
157 108 73 157 108 73 157 108 73 157 108 73 157 108 73 157 107 73 157 108 73 
157 108 73 157 108 73 157 108 73 157 108 73 157 108 73 157 108 73 157 108 73 
157 108 73 157 108 73 157 108 73 157 108 73 157 108 73 157 108 73 157 108 73 
157 108 73 157 108 73 157 108 73 157 108 73 157 108 73 157 108 73 139 91 57 
157 108 73 157 108 73 157 108 73 157 108 73 157 108 73 157 108 73 157 108 73 
157 108 73 157 108 73 139 91 57 157 108 73 157 108 73 157 108 73 157 108 73 
157 108 73 157 108 73 157 108 73 157 108 73 157 108 73 157 108 73 157 108 73 
157 108 73 157 108 73 139 91 57 139 91 57 157 108 73 157 108 73 157 108 73 
157 108 73 157 108 73 157 108 73 157 108 73 157 108 73 157 108 73 157 108 73 
157 108 73 157 108 73 157 108 73 157 108 73 157 108 73 157 108 73 157 108 73 
157 108 73 157 108 73 157 108 73 157 108 73 157 108 73 157 108 73 157 108 73 
157 108 73 157 108 73 157 108 73 157 108 73 157 108 73 157 108 73 157 108 73 
157 108 73 157 108 73 157 108 73 157 108 73 157 108 73 157 108 73 157 108 73 
157 108 73 139 91 57 139 91 57 157 108 73 157 108 73 157 108 73 157 108 73 
157 108 73 157 108 73 157 108 73 157 108 73 157 108 73 157 108 73 157 108 73 
157 108 73 157 108 73 157 108 73 157 108 73 157 108 73 157 108 73 157 108 73 
157 108 73 157 108 73 157 108 73 157 108 73 157 108 73 157 108 73 157 108 73 
157 108 73 157 108 73 157 108 73 157 108 73 157 108 73 157 108 73 157 108 73 
157 108 73 157 108 73 157 108 73 157 108 73 157 108 73 157 108 73 157 108 73 
157 108 73 157 108 73 157 108 73 157 108 73 157 108 73 157 108 73 157 108 73 
157 108 73 139 91 57 139 91 57 139 91 57 139 91 57 157 108 73 157 108 73 
157 108 73 157 108 73 157 108 73 139 91 57 157 108 73 157 108 73 139 91 57 
157 108 73 157 108 73 139 91 57 157 108 73 157 108 73 157 108 73 140 92 57 
140 92 57 157 108 73 157 108 73 157 108 73 157 108 73 157 108 73 139 91 57 
139 91 57 157 108 73 157 108 73 139 91 57 157 108 73 157 108 73 157 108 73 
140 92 57 140 92 57 140 92 57 113 72 42 157 108 73 157 108 73 157 108 73 
157 108 73 157 108 73 157 108 73 157 108 73 157 108 73 112 72 42 140 92 57 
140 92 57 140 92 57 140 92 57 140 92 57 113 72 42 113 72 42 157 108 73 
157 108 73 157 108 73 157 108 73 157 108 73 157 108 73 157 108 73 157 108 73 
157 108 73 113 72 42 113 72 42 113 72 42 113 72 42 113 72 42 113 72 42 
157 108 73 157 108 73 157 108 73 157 108 73 157 108 73 157 108 73 157 108 73 
157 108 73 157 108 73 157 108 73 157 108 73 157 108 73 157 108 73 157 108 73 
157 108 73 157 108 73 157 108 73 157 108 73 157 108 73 157 108 73 157 108 73 
157 108 73 157 108 73 157 108 73 157 108 73 157 108 73 157 108 73 157 108 73 
157 108 73 157 108 73 157 108 73 157 108 73 157 108 73 157 108 73 157 108 73 
157 108 73 157 108 73 139 91 57 139 91 57 
